<?xml version="1.0" encoding="UTF-8"?>
<svg xmlns="http://www.w3.org/2000/svg" xmlns:xlink="http://www.w3.org/1999/xlink" width="324.16pt" height="322.43pt" viewBox="0 0 324.16 322.43" version="1.1">
<defs>
<clipPath id="clip1">
  <path d="M 307 180 L 324.160156 180 L 324.160156 203 L 307 203 Z M 307 180 "/>
</clipPath>
<clipPath id="clip2">
  <path d="M 0 35 L 289 35 L 289 322.429688 L 0 322.429688 Z M 0 35 "/>
</clipPath>
</defs>
<g id="surface1">
<path style=" stroke:none;fill-rule:nonzero;fill:rgb(0%,49.01886%,64.704895%);fill-opacity:1;" d="M 40.28125 166.195313 L 9.683594 166.195313 C 7.644531 166.195313 5.984375 164.535156 5.984375 162.496094 L 5.984375 142.414063 C 5.984375 140.375 7.644531 138.714844 9.683594 138.714844 L 40.28125 138.714844 C 42.324219 138.714844 43.984375 140.375 43.984375 142.414063 L 43.984375 162.496094 C 43.984375 164.535156 42.324219 166.195313 40.28125 166.195313 "/>
<path style=" stroke:none;fill-rule:nonzero;fill:rgb(0%,49.01886%,64.704895%);fill-opacity:1;" d="M 21.121094 169.546875 L 28.84375 169.546875 L 28.84375 164.777344 L 21.121094 164.777344 Z M 21.121094 169.546875 "/>
<path style=" stroke:none;fill-rule:nonzero;fill:rgb(0%,49.01886%,64.704895%);fill-opacity:1;" d="M 13.78125 170.355469 L 36.183594 170.355469 L 36.183594 168.007813 L 13.78125 168.007813 Z M 13.78125 170.355469 "/>
<path style=" stroke:none;fill-rule:nonzero;fill:rgb(58.822632%,54.508972%,51.371765%);fill-opacity:1;" d="M 242.671875 250.625 L 245.511719 250.625 L 245.511719 242.003906 L 242.671875 242.003906 Z M 242.671875 250.625 "/>
<path style=" stroke:none;fill-rule:nonzero;fill:rgb(58.822632%,54.508972%,51.371765%);fill-opacity:1;" d="M 238.164063 250.625 L 241.003906 250.625 L 241.003906 242.003906 L 238.164063 242.003906 Z M 238.164063 250.625 "/>
<path style=" stroke:none;fill-rule:nonzero;fill:rgb(58.822632%,54.508972%,51.371765%);fill-opacity:1;" d="M 233.664063 250.625 L 236.503906 250.625 L 236.503906 242.003906 L 233.664063 242.003906 Z M 233.664063 250.625 "/>
<path style=" stroke:none;fill-rule:nonzero;fill:rgb(58.822632%,54.508972%,51.371765%);fill-opacity:1;" d="M 229.152344 250.625 L 231.992188 250.625 L 231.992188 242.003906 L 229.152344 242.003906 Z M 229.152344 250.625 "/>
<path style=" stroke:none;fill-rule:nonzero;fill:rgb(58.822632%,54.508972%,51.371765%);fill-opacity:1;" d="M 224.644531 250.625 L 227.484375 250.625 L 227.484375 242.003906 L 224.644531 242.003906 Z M 224.644531 250.625 "/>
<path style=" stroke:none;fill-rule:nonzero;fill:rgb(58.822632%,54.508972%,51.371765%);fill-opacity:1;" d="M 242.671875 220.335938 L 245.511719 220.335938 L 245.511719 211.714844 L 242.671875 211.714844 Z M 242.671875 220.335938 "/>
<path style=" stroke:none;fill-rule:nonzero;fill:rgb(58.822632%,54.508972%,51.371765%);fill-opacity:1;" d="M 238.164063 220.335938 L 241.003906 220.335938 L 241.003906 211.714844 L 238.164063 211.714844 Z M 238.164063 220.335938 "/>
<path style=" stroke:none;fill-rule:nonzero;fill:rgb(58.822632%,54.508972%,51.371765%);fill-opacity:1;" d="M 233.664063 220.335938 L 236.503906 220.335938 L 236.503906 211.714844 L 233.664063 211.714844 Z M 233.664063 220.335938 "/>
<path style=" stroke:none;fill-rule:nonzero;fill:rgb(58.822632%,54.508972%,51.371765%);fill-opacity:1;" d="M 229.152344 220.335938 L 231.992188 220.335938 L 231.992188 211.714844 L 229.152344 211.714844 Z M 229.152344 220.335938 "/>
<path style=" stroke:none;fill-rule:nonzero;fill:rgb(58.822632%,54.508972%,51.371765%);fill-opacity:1;" d="M 224.644531 220.335938 L 227.484375 220.335938 L 227.484375 211.714844 L 224.644531 211.714844 Z M 224.644531 220.335938 "/>
<path style=" stroke:none;fill-rule:nonzero;fill:rgb(58.822632%,54.508972%,51.371765%);fill-opacity:1;" d="M 215.621094 241.597656 L 224.242188 241.597656 L 224.242188 238.753906 L 215.621094 238.753906 Z M 215.621094 241.597656 "/>
<path style=" stroke:none;fill-rule:nonzero;fill:rgb(58.822632%,54.508972%,51.371765%);fill-opacity:1;" d="M 215.621094 237.097656 L 224.242188 237.097656 L 224.242188 234.253906 L 215.621094 234.253906 Z M 215.621094 237.097656 "/>
<path style=" stroke:none;fill-rule:nonzero;fill:rgb(58.822632%,54.508972%,51.371765%);fill-opacity:1;" d="M 215.621094 232.585938 L 224.242188 232.585938 L 224.242188 229.746094 L 215.621094 229.746094 Z M 215.621094 232.585938 "/>
<path style=" stroke:none;fill-rule:nonzero;fill:rgb(58.822632%,54.508972%,51.371765%);fill-opacity:1;" d="M 215.621094 228.074219 L 224.242188 228.074219 L 224.242188 225.234375 L 215.621094 225.234375 Z M 215.621094 228.074219 "/>
<path style=" stroke:none;fill-rule:nonzero;fill:rgb(58.822632%,54.508972%,51.371765%);fill-opacity:1;" d="M 215.621094 223.574219 L 224.242188 223.574219 L 224.242188 220.734375 L 215.621094 220.734375 Z M 215.621094 223.574219 "/>
<path style=" stroke:none;fill-rule:nonzero;fill:rgb(58.822632%,54.508972%,51.371765%);fill-opacity:1;" d="M 245.914063 241.597656 L 254.53125 241.597656 L 254.53125 238.753906 L 245.914063 238.753906 Z M 245.914063 241.597656 "/>
<path style=" stroke:none;fill-rule:nonzero;fill:rgb(58.822632%,54.508972%,51.371765%);fill-opacity:1;" d="M 245.914063 237.097656 L 254.53125 237.097656 L 254.53125 234.253906 L 245.914063 234.253906 Z M 245.914063 237.097656 "/>
<path style=" stroke:none;fill-rule:nonzero;fill:rgb(58.822632%,54.508972%,51.371765%);fill-opacity:1;" d="M 245.914063 232.585938 L 254.53125 232.585938 L 254.53125 229.746094 L 245.914063 229.746094 Z M 245.914063 232.585938 "/>
<path style=" stroke:none;fill-rule:nonzero;fill:rgb(58.822632%,54.508972%,51.371765%);fill-opacity:1;" d="M 245.914063 228.074219 L 254.53125 228.074219 L 254.53125 225.234375 L 245.914063 225.234375 Z M 245.914063 228.074219 "/>
<path style=" stroke:none;fill-rule:nonzero;fill:rgb(58.822632%,54.508972%,51.371765%);fill-opacity:1;" d="M 245.914063 223.574219 L 254.53125 223.574219 L 254.53125 220.734375 L 245.914063 220.734375 Z M 245.914063 223.574219 "/>
<path style=" stroke:none;fill-rule:nonzero;fill:rgb(11.376953%,11.376953%,10.594177%);fill-opacity:1;" d="M 22.304688 44.703125 C 24.171875 46.902344 25.984375 48.921875 27.703125 50.753906 L 22.703125 55.003906 L 15.121094 46.082031 L 7.921875 52.183594 L 15.503906 61.113281 L 10.503906 65.363281 C 8.742188 63.0625 7.054688 60.953125 5.421875 59.03125 C 3.792969 57.121094 1.972656 55.101563 0.00390625 52.992188 L 17.203125 38.394531 C 18.734375 40.394531 20.433594 42.492188 22.304688 44.703125 "/>
<path style=" stroke:none;fill-rule:nonzero;fill:rgb(11.376953%,11.376953%,10.594177%);fill-opacity:1;" d="M 35.65625 35.820313 C 36.96875 35.007813 37.929688 34.359375 38.539063 33.867188 C 39.148438 33.378906 39.519531 32.949219 39.636719 32.570313 C 39.777344 32.199219 39.71875 31.800781 39.449219 31.378906 C 39.1875 30.960938 38.867188 30.730469 38.496094 30.667969 C 38.128906 30.609375 37.589844 30.738281 36.878906 31.070313 C 36.179688 31.398438 35.148438 31.988281 33.796875 32.808594 L 30.527344 34.839844 L 32.378906 37.839844 Z M 33.148438 28.027344 C 36.296875 26.089844 38.769531 25.179688 40.558594 25.300781 C 42.347656 25.4375 43.738281 26.308594 44.746094 27.929688 C 45.429688 29.050781 45.769531 30.148438 45.757813 31.230469 C 45.746094 32.308594 45.257813 33.460938 44.296875 34.660156 C 43.328125 35.859375 41.757813 37.117188 39.589844 38.460938 L 34.648438 41.507813 L 36.707031 44.859375 L 30.859375 48.460938 C 29.46875 45.929688 28.109375 43.589844 26.789063 41.4375 C 25.46875 39.300781 23.988281 37.039063 22.339844 34.667969 L 28.1875 31.058594 L 28.199219 31.070313 "/>
<path style=" stroke:none;fill-rule:nonzero;fill:rgb(11.376953%,11.376953%,10.594177%);fill-opacity:1;" d="M 66.058594 23.78125 C 66.648438 22.851563 66.679688 21.761719 66.160156 20.519531 C 65.648438 19.320313 64.847656 18.601563 63.757813 18.359375 C 62.667969 18.132813 61.167969 18.410156 59.269531 19.222656 C 57.378906 20.019531 56.148438 20.890625 55.558594 21.832031 C 54.96875 22.78125 54.929688 23.859375 55.4375 25.0625 C 55.949219 26.28125 56.757813 27.011719 57.847656 27.25 C 58.9375 27.480469 60.429688 27.191406 62.308594 26.402344 C 64.210938 25.589844 65.460938 24.722656 66.058594 23.78125 M 54.558594 32.222656 C 52.117188 31.640625 50.378906 30.109375 49.339844 27.652344 C 48.308594 25.199219 48.417969 22.910156 49.679688 20.761719 C 50.949219 18.601563 53.550781 16.691406 57.5 15.019531 C 61.460938 13.351563 64.648438 12.8125 67.070313 13.402344 C 69.5 13.992188 71.230469 15.5 72.257813 17.941406 C 73.308594 20.429688 73.210938 22.730469 71.949219 24.871094 C 70.679688 27 68.070313 28.910156 64.089844 30.589844 C 60.160156 32.261719 56.980469 32.789063 54.558594 32.222656 "/>
<path style=" stroke:none;fill-rule:nonzero;fill:rgb(11.376953%,11.376953%,10.594177%);fill-opacity:1;" d="M 95.941406 12.84375 C 96.332031 12.363281 96.453125 11.84375 96.320313 11.285156 C 96.050781 10.183594 94.921875 9.695313 92.910156 9.824219 L 93.332031 11.742188 C 93.441406 12.285156 93.609375 13.09375 93.882813 14.183594 C 94.859375 13.765625 95.5625 13.3125 95.941406 12.84375 M 84.191406 15.613281 C 84.730469 15.863281 85.539063 15.953125 86.589844 15.894531 L 86.019531 13.472656 L 85.5625 11.5625 C 83.703125 12.363281 82.902344 13.3125 83.171875 14.402344 C 83.300781 14.953125 83.640625 15.363281 84.191406 15.613281 M 94.902344 18.503906 L 95.421875 20.425781 L 87.992188 22.195313 L 87.550781 20.234375 C 83.960938 20.773438 81.179688 20.695313 79.25 19.972656 C 77.3125 19.265625 76.132813 17.992188 75.703125 16.183594 C 75.269531 14.382813 75.75 12.734375 77.152344 11.214844 C 78.539063 9.695313 80.980469 8.375 84.460938 7.234375 L 83.960938 5.242188 L 91.390625 3.484375 C 91.480469 3.902344 91.621094 4.5625 91.839844 5.484375 C 95.480469 4.925781 98.28125 5.015625 100.230469 5.722656 C 102.171875 6.453125 103.371094 7.714844 103.789063 9.503906 C 104.699219 13.304688 101.730469 16.304688 94.902344 18.503906 "/>
<path style=" stroke:none;fill-rule:nonzero;fill:rgb(11.376953%,11.376953%,10.594177%);fill-opacity:1;" d="M 115.214844 13.195313 C 122.265625 12.65625 127.382813 12.195313 130.554688 11.828125 C 130.453125 12.445313 130.433594 13.085938 130.453125 13.726563 C 130.464844 14.378906 130.515625 15.195313 130.585938 16.167969 L 108.933594 17.746094 C 108.875 14.867188 108.742188 12.167969 108.5625 9.65625 C 108.382813 7.148438 108.113281 4.457031 107.753906 1.585938 L 129.402344 0.0078125 L 129.695313 4.035156 L 114.625 5.136719 L 114.785156 7.277344 C 115.675781 7.226563 116.992188 7.136719 118.742188 7.007813 C 121.683594 6.785156 124.742188 6.527344 127.894531 6.207031 L 128.175781 10.035156 C 125.015625 10.175781 121.953125 10.355469 119.003906 10.566406 C 117.253906 10.695313 115.933594 10.796875 115.042969 10.878906 "/>
<path style=" stroke:none;fill-rule:nonzero;fill:rgb(11.376953%,11.376953%,10.594177%);fill-opacity:1;" d="M 136.265625 14.367188 C 134.386719 12.796875 133.535156 10.695313 133.726563 8.046875 C 133.90625 5.394531 135.058594 3.355469 137.15625 1.957031 C 139.246094 0.566406 142.398438 0.0078125 146.585938 0.304688 C 152.457031 0.726563 156.257813 2.617188 158.015625 5.976563 C 156.316406 6.316406 154.308594 6.875 151.988281 7.625 C 151.515625 6.757813 150.71875 6.085938 149.585938 5.597656 C 148.457031 5.117188 147.285156 4.824219 146.078125 4.746094 C 144.296875 4.617188 142.9375 4.894531 142.015625 5.585938 C 141.085938 6.277344 140.578125 7.164063 140.507813 8.265625 C 140.425781 9.457031 140.816406 10.457031 141.707031 11.277344 C 142.585938 12.085938 143.996094 12.566406 145.925781 12.707031 C 147.46875 12.816406 148.707031 12.695313 149.648438 12.355469 C 150.585938 12.015625 151.296875 11.40625 151.785156 10.546875 C 153.257813 11.304688 155.15625 12.1875 157.476563 13.164063 C 156.417969 14.894531 154.777344 16.046875 152.566406 16.605469 C 150.335938 17.15625 147.945313 17.355469 145.386719 17.164063 C 141.1875 16.867188 138.148438 15.9375 136.265625 14.367188 "/>
<path style=" stroke:none;fill-rule:nonzero;fill:rgb(11.376953%,11.376953%,10.594177%);fill-opacity:1;" d="M 162.226563 16.8125 C 160.597656 14.992188 160.066406 12.78125 160.644531 10.203125 C 161.214844 7.601563 162.65625 5.761719 164.9375 4.683594 C 167.214844 3.601563 170.414063 3.53125 174.515625 4.441406 C 180.265625 5.722656 183.757813 8.140625 184.996094 11.730469 C 183.265625 11.820313 181.195313 12.0625 178.796875 12.480469 C 178.445313 11.550781 177.757813 10.761719 176.707031 10.113281 C 175.65625 9.472656 174.535156 9.011719 173.355469 8.753906 C 171.617188 8.363281 170.234375 8.433594 169.207031 8.980469 C 168.195313 9.523438 167.566406 10.332031 167.324219 11.410156 C 167.066406 12.570313 167.304688 13.621094 168.066406 14.5625 C 168.824219 15.492188 170.144531 16.183594 172.035156 16.601563 C 173.535156 16.933594 174.785156 17.003906 175.765625 16.800781 C 176.746094 16.601563 177.546875 16.113281 178.15625 15.332031 C 179.507813 16.300781 181.257813 17.441406 183.394531 18.761719 C 182.097656 20.3125 180.304688 21.203125 178.027344 21.433594 C 175.746094 21.652344 173.347656 21.480469 170.835938 20.933594 C 166.734375 20.011719 163.855469 18.640625 162.226563 16.8125 "/>
<path style=" stroke:none;fill-rule:nonzero;fill:rgb(11.376953%,11.376953%,10.594177%);fill-opacity:1;" d="M 197.355469 11.511719 L 192.367188 23.023438 L 203.246094 13.804688 L 212.816406 17.53125 C 211.785156 19.832031 210.746094 22.324219 209.707031 24.992188 C 208.648438 27.683594 207.738281 30.234375 206.945313 32.621094 L 200.246094 30.023438 L 205.148438 18.84375 L 194.417969 27.753906 L 185.097656 24.121094 C 186.285156 21.484375 187.335938 18.992188 188.246094 16.644531 C 189.15625 14.3125 190.066406 11.78125 190.976563 9.03125 "/>
<path style=" stroke:none;fill-rule:nonzero;fill:rgb(11.376953%,11.376953%,10.594177%);fill-opacity:1;" d="M 227.707031 38.257813 C 228.816406 38.175781 229.707031 37.558594 230.386719 36.398438 C 231.058594 35.265625 231.148438 34.195313 230.6875 33.1875 C 230.226563 32.167969 229.109375 31.136719 227.328125 30.097656 C 225.558594 29.058594 224.117188 28.585938 223.007813 28.675781 C 221.898438 28.765625 221.007813 29.378906 220.339844 30.507813 C 219.667969 31.648438 219.566406 32.726563 220.039063 33.746094 C 220.488281 34.757813 221.609375 35.777344 223.378906 36.816406 C 225.15625 37.855469 226.597656 38.335938 227.707031 38.257813 M 214.066406 34.066406 C 213.089844 31.765625 213.277344 29.46875 214.628906 27.15625 C 215.976563 24.867188 217.886719 23.585938 220.367188 23.316406 C 222.847656 23.058594 225.9375 23.996094 229.628906 26.167969 C 233.339844 28.335938 235.6875 30.578125 236.65625 32.878906 C 237.628906 35.175781 237.4375 37.457031 236.097656 39.746094 C 234.738281 42.066406 232.828125 43.367188 230.359375 43.628906 C 227.886719 43.886719 224.789063 42.925781 221.066406 40.746094 C 217.386719 38.585938 215.058594 36.367188 214.066406 34.066406 "/>
<path style=" stroke:none;fill-rule:nonzero;fill:rgb(11.376953%,11.376953%,10.594177%);fill-opacity:1;" d="M 262.609375 50.710938 C 260.917969 52.582031 259.15625 54.632813 257.339844 56.871094 C 255.507813 59.113281 253.847656 61.253906 252.359375 63.28125 L 247.269531 59.140625 L 251.109375 54.433594 L 243.136719 47.941406 L 239.296875 52.652344 L 234.207031 48.511719 C 236.148438 46.363281 237.917969 44.3125 239.496094 42.363281 C 241.097656 40.410156 242.746094 38.273438 244.449219 35.941406 L 249.546875 40.082031 L 245.707031 44.792969 L 253.679688 51.28125 L 257.519531 46.570313 "/>
<path style=" stroke:none;fill-rule:nonzero;fill:rgb(11.376953%,11.376953%,10.594177%);fill-opacity:1;" d="M 269.550781 71.941406 C 270.230469 70.359375 270.910156 68.78125 271.582031 67.179688 L 272.210938 65.710938 C 270.773438 66.132813 268.601563 66.789063 265.722656 67.679688 Z M 266.613281 78.652344 C 267.003906 77.820313 267.472656 76.75 268.03125 75.449219 L 262.0625 68.839844 L 258.753906 69.941406 L 254.0625 64.742188 L 271.351563 59.679688 L 278.230469 67.320313 L 271.453125 84.019531 "/>
<path style=" stroke:none;fill-rule:nonzero;fill:rgb(11.376953%,11.376953%,10.594177%);fill-opacity:1;" d="M 285.867188 105.878906 L 282.007813 99.960938 L 291.949219 93.5 L 288.527344 88.261719 L 287.417969 88.941406 C 286.476563 89.558594 285.628906 90.078125 284.867188 90.488281 C 284.117188 90.898438 283.308594 91.261719 282.449219 91.578125 C 280.886719 92.148438 279.277344 92.070313 277.628906 91.339844 C 275.96875 90.589844 274.40625 89.089844 272.929688 86.808594 L 276.566406 84.441406 C 277.066406 84.980469 277.597656 85.320313 278.167969 85.449219 C 278.746094 85.570313 279.476563 85.480469 280.359375 85.171875 C 281.066406 84.921875 282.496094 84.078125 284.667969 82.671875 L 288.476563 80.160156 L 299.449219 97.050781 "/>
<path style=" stroke:none;fill-rule:nonzero;fill:rgb(11.376953%,11.376953%,10.594177%);fill-opacity:1;" d="M 305.855469 110.007813 L 294.195313 114.617188 L 308.40625 115.777344 L 312.546875 125.1875 C 310.1875 126.078125 307.695313 127.109375 305.066406 128.269531 C 302.414063 129.429688 299.964844 130.578125 297.714844 131.71875 L 294.824219 125.148438 L 306.195313 120.6875 L 292.296875 119.417969 L 288.265625 110.269531 C 290.976563 109.25 293.476563 108.230469 295.785156 107.210938 C 298.074219 106.210938 300.515625 105.050781 303.097656 103.75 "/>
<path style=" stroke:none;fill-rule:nonzero;fill:rgb(11.376953%,11.376953%,10.594177%);fill-opacity:1;" d="M 315.566406 152.503906 C 314.917969 149.890625 314.265625 147.363281 313.605469 144.910156 L 302.367188 148.011719 L 300.65625 141.820313 L 311.90625 138.722656 C 311.207031 136.273438 310.476563 133.761719 309.695313 131.230469 L 314.226563 129.980469 L 320.085938 151.253906 "/>
<path style=" stroke:none;fill-rule:nonzero;fill:rgb(11.376953%,11.376953%,10.594177%);fill-opacity:1;" d="M 309.785156 163.59375 C 310.683594 170.046875 311.402344 174.703125 311.925781 177.59375 C 311.304688 177.546875 310.675781 177.554688 310.023438 177.625 C 309.382813 177.683594 308.574219 177.785156 307.59375 177.914063 L 304.914063 158.136719 C 307.792969 157.886719 310.484375 157.59375 312.984375 157.253906 C 315.484375 156.914063 318.152344 156.484375 320.992188 155.964844 L 323.675781 175.734375 L 319.664063 176.285156 L 317.804688 162.503906 L 315.675781 162.796875 C 315.773438 163.613281 315.925781 164.816406 316.144531 166.414063 C 316.503906 169.113281 316.925781 171.894531 317.402344 174.773438 L 313.59375 175.285156 C 313.304688 172.386719 312.964844 169.59375 312.59375 166.894531 C 312.382813 165.296875 312.214844 164.09375 312.085938 163.285156 "/>
<g clip-path="url(#clip1)" clip-rule="nonzero">
<path style=" stroke:none;fill-rule:nonzero;fill:rgb(11.376953%,11.376953%,10.594177%);fill-opacity:1;" d="M 319.46875 202.265625 C 319.527344 199.574219 319.566406 196.964844 319.566406 194.433594 L 307.90625 194.484375 L 307.878906 188.054688 L 319.546875 188.015625 C 319.519531 185.453125 319.46875 182.855469 319.378906 180.203125 L 324.066406 180.183594 L 324.15625 202.246094 "/>
</g>
<path style=" stroke:none;fill-rule:nonzero;fill:rgb(25.87738%,70.117188%,55.664063%);fill-opacity:1;" d="M 81.320313 85.773438 C 74.621094 92.085938 71.832031 100.964844 72.972656 109.425781 C 81.371094 111.066406 90.390625 108.796875 97.089844 102.484375 C 103.789063 96.175781 106.582031 87.304688 105.429688 78.835938 C 97.039063 77.195313 88.019531 79.464844 81.320313 85.773438 "/>
<g clip-path="url(#clip2)" clip-rule="nonzero">
<path style="fill:none;stroke-width:18.1;stroke-linecap:butt;stroke-linejoin:miter;stroke:rgb(11.376953%,11.376953%,10.594177%);stroke-opacity:1;stroke-miterlimit:10;" d="M 1325.117188 2613.792187 L 1325.117188 2101.721875 M 400.3125 2231.01875 L 762.734375 1868.909375 M 17.226563 1306.917187 L 529.84375 1306.917187 M 400.3125 382.698437 L 762.734375 744.925 M 1325.117188 0.003125 L 1325.117188 512.1125 M 2249.921875 382.698437 L 1887.421875 744.925 M 2632.929688 1306.917187 L 2120.429688 1306.917187 M 2249.921875 2231.01875 L 1887.421875 1868.909375 " transform="matrix(0.1,0,0,-0.1,0,322.43)"/>
</g>
<path style=" stroke:none;fill-rule:nonzero;fill:rgb(11.376953%,11.376953%,10.594177%);fill-opacity:1;" d="M 115.957031 203.570313 C 115.917969 199.828125 116.128906 197.910156 116.867188 195.800781 C 117.40625 194.21875 118.117188 192.929688 118.878906 191.519531 C 119.40625 190.46875 119.65625 190.019531 120.15625 188.808594 C 120.707031 187.4375 121.117188 186.398438 121.117188 184.238281 L 121.117188 179.128906 C 121.117188 178.589844 120.996094 177.539063 120.785156 177.050781 C 120.445313 176.257813 119.867188 176.058594 119.367188 176.058594 C 118.535156 176.058594 118.285156 176.507813 118.078125 177.007813 C 117.785156 177.800781 117.746094 178.5 117.746094 179.410156 L 117.746094 185.738281 L 116.167969 185.738281 L 116.167969 180.828125 C 116.167969 179.078125 116.246094 178.210938 116.335938 177.800781 C 116.707031 175.46875 118.078125 174.46875 119.328125 174.46875 C 120.707031 174.46875 122.035156 175.429688 122.445313 177.089844 C 122.566406 177.628906 122.695313 178.75 122.695313 179.300781 L 122.695313 183.410156 C 122.695313 186.027344 122.328125 187.609375 122.035156 188.4375 C 121.738281 189.347656 120.90625 191.179688 120.328125 192.308594 C 119.65625 193.550781 118.878906 194.878906 118.328125 196.539063 C 117.746094 198.289063 117.488281 200.199219 117.535156 201.988281 L 122.617188 201.988281 L 122.617188 203.570313 "/>
<path style=" stroke:none;fill-rule:nonzero;fill:rgb(11.376953%,11.376953%,10.594177%);fill-opacity:1;" d="M 125.523438 202.28125 C 125.144531 201.492188 125.0625 200.453125 125.0625 198.414063 L 125.0625 179.632813 C 125.0625 177.59375 125.144531 176.542969 125.523438 175.761719 C 126.195313 174.34375 127.273438 174.054688 128.3125 174.054688 C 129.355469 174.054688 130.433594 174.34375 131.105469 175.761719 C 131.472656 176.542969 131.5625 177.59375 131.5625 179.632813 L 131.5625 198.414063 C 131.5625 200.453125 131.472656 201.492188 131.105469 202.28125 C 130.433594 203.691406 129.355469 203.992188 128.3125 203.992188 C 127.273438 203.992188 126.195313 203.691406 125.523438 202.28125 M 129.773438 201.492188 C 129.894531 201.152344 129.972656 200.703125 129.972656 198.703125 L 129.972656 179.332031 C 129.972656 177.34375 129.894531 176.871094 129.773438 176.542969 C 129.433594 175.722656 128.8125 175.632813 128.3125 175.632813 C 127.773438 175.632813 127.234375 175.722656 126.894531 176.542969 C 126.773438 176.871094 126.652344 177.382813 126.652344 179.332031 L 126.652344 198.703125 C 126.652344 200.652344 126.773438 201.152344 126.894531 201.492188 C 127.234375 202.324219 127.773438 202.402344 128.3125 202.402344 C 128.8125 202.402344 129.433594 202.324219 129.773438 201.492188 "/>
<path style=" stroke:none;fill-rule:nonzero;fill:rgb(11.376953%,11.376953%,10.594177%);fill-opacity:1;" d="M 133.722656 203.570313 C 133.679688 199.828125 133.890625 197.910156 134.632813 195.800781 C 135.171875 194.21875 135.882813 192.929688 136.632813 191.519531 C 137.171875 190.46875 137.421875 190.019531 137.921875 188.808594 C 138.472656 187.4375 138.882813 186.398438 138.882813 184.238281 L 138.882813 179.128906 C 138.882813 178.589844 138.75 177.539063 138.550781 177.050781 C 138.210938 176.257813 137.632813 176.058594 137.132813 176.058594 C 136.300781 176.058594 136.050781 176.507813 135.839844 177.007813 C 135.550781 177.800781 135.511719 178.5 135.511719 179.410156 L 135.511719 185.738281 L 133.921875 185.738281 L 133.921875 180.828125 C 133.921875 179.078125 134.011719 178.210938 134.101563 177.800781 C 134.472656 175.46875 135.839844 174.46875 137.082031 174.46875 C 138.472656 174.46875 139.800781 175.429688 140.210938 177.089844 C 140.332031 177.628906 140.460938 178.75 140.460938 179.300781 L 140.460938 183.410156 C 140.460938 186.027344 140.089844 187.609375 139.800781 188.4375 C 139.5 189.347656 138.671875 191.179688 138.089844 192.308594 C 137.421875 193.550781 136.632813 194.878906 136.089844 196.539063 C 135.511719 198.289063 135.25 200.199219 135.300781 201.988281 L 140.382813 201.988281 L 140.382813 203.570313 "/>
<path style=" stroke:none;fill-rule:nonzero;fill:rgb(11.376953%,11.376953%,10.594177%);fill-opacity:1;" d="M 142.332031 203.570313 C 142.289063 199.828125 142.492188 197.910156 143.242188 195.800781 C 143.78125 194.21875 144.492188 192.929688 145.242188 191.519531 C 145.78125 190.46875 146.03125 190.019531 146.53125 188.808594 C 147.082031 187.4375 147.492188 186.398438 147.492188 184.238281 L 147.492188 179.128906 C 147.492188 178.589844 147.359375 177.539063 147.160156 177.050781 C 146.820313 176.257813 146.242188 176.058594 145.742188 176.058594 C 144.910156 176.058594 144.660156 176.507813 144.449219 177.007813 C 144.160156 177.800781 144.121094 178.5 144.121094 179.410156 L 144.121094 185.738281 L 142.53125 185.738281 L 142.53125 180.828125 C 142.53125 179.078125 142.621094 178.210938 142.710938 177.800781 C 143.082031 175.46875 144.449219 174.46875 145.691406 174.46875 C 147.082031 174.46875 148.410156 175.429688 148.8125 177.089844 C 148.941406 177.628906 149.070313 178.75 149.070313 179.300781 L 149.070313 183.410156 C 149.070313 186.027344 148.699219 187.609375 148.410156 188.4375 C 148.109375 189.347656 147.28125 191.179688 146.699219 192.308594 C 146.03125 193.550781 145.242188 194.878906 144.699219 196.539063 C 144.121094 198.289063 143.871094 200.199219 143.910156 201.988281 L 148.992188 201.988281 L 148.992188 203.570313 "/>
<path style=" stroke:none;fill-rule:nonzero;fill:rgb(6.665039%,32.93457%,60.742188%);fill-opacity:1;" d="M 92.785156 304.808594 C 83.285156 304.808594 75.546875 297.078125 75.546875 287.585938 C 75.546875 278.078125 83.285156 270.359375 92.785156 270.359375 C 102.285156 270.359375 110.027344 278.078125 110.027344 287.585938 C 110.027344 297.078125 102.285156 304.808594 92.785156 304.808594 M 92.785156 278.117188 C 87.566406 278.117188 83.316406 282.367188 83.316406 287.585938 C 83.316406 292.796875 87.566406 297.039063 92.785156 297.039063 C 98.007813 297.039063 102.257813 292.796875 102.257813 287.585938 C 102.257813 282.367188 98.007813 278.117188 92.785156 278.117188 "/>
<path style=" stroke:none;fill-rule:nonzero;fill:rgb(6.665039%,32.93457%,60.742188%);fill-opacity:1;" d="M 92.785156 291.734375 C 95.085938 291.734375 96.945313 289.875 96.945313 287.574219 C 96.945313 285.285156 95.085938 283.4375 92.785156 283.4375 C 90.484375 283.4375 88.625 285.285156 88.625 287.574219 C 88.625 289.875 90.484375 291.734375 92.785156 291.734375 "/>
<path style=" stroke:none;fill-rule:nonzero;fill:rgb(90.234375%,21.166992%,7.054138%);fill-opacity:1;" d="M 235.761719 132.730469 L 253.011719 132.730469 L 232.308594 161.21875 L 215.058594 161.21875 Z M 235.761719 132.730469 "/>
<path style=" stroke:none;fill-rule:nonzero;fill:rgb(0%,62.693787%,82.8125%);fill-opacity:1;" d="M 207.304688 89.019531 L 183.824219 88.660156 C 183.453125 85.132813 181.105469 82.589844 177.585938 81.902344 L 176.636719 76.160156 C 176.554688 75.691406 176.144531 75.339844 175.664063 75.339844 C 175.175781 75.339844 174.765625 75.691406 174.683594 76.160156 L 173.734375 81.902344 C 170.214844 82.589844 167.863281 85.132813 167.496094 88.660156 L 144.015625 89.019531 C 143.515625 89.03125 143.09375 89.410156 143.046875 89.910156 C 143.003906 90.410156 143.34375 90.859375 143.835938 90.960938 L 156.785156 93.570313 C 156.285156 94.179688 155.984375 94.960938 155.984375 95.8125 C 155.984375 97.78125 157.59375 99.382813 159.574219 99.382813 C 161.554688 99.382813 163.175781 97.78125 163.175781 95.8125 C 163.175781 95.472656 163.113281 95.140625 163.023438 94.832031 L 169.453125 96.121094 C 169.476563 96.132813 169.484375 96.132813 169.503906 96.132813 C 171.074219 98.359375 173.316406 99.679688 175.664063 99.679688 C 178.023438 99.679688 180.273438 98.359375 181.875 96.039063 L 188.304688 94.769531 C 188.203125 95.101563 188.15625 95.449219 188.15625 95.8125 C 188.15625 97.78125 189.765625 99.382813 191.746094 99.382813 C 193.726563 99.382813 195.34375 97.78125 195.34375 95.8125 C 195.34375 94.949219 195.035156 94.152344 194.515625 93.539063 L 207.484375 90.960938 C 207.976563 90.859375 208.316406 90.410156 208.273438 89.910156 C 208.226563 89.410156 207.816406 89.03125 207.304688 89.019531 "/>
<path style=" stroke:none;fill-rule:nonzero;fill:rgb(16.088867%,48.631287%,87.5%);fill-opacity:1;" d="M 182.164063 284.796875 L 182.164063 277.375 C 182.164063 277.316406 182.113281 277.265625 182.054688 277.265625 L 177.503906 277.265625 C 177.441406 277.265625 177.394531 277.214844 177.394531 277.15625 L 177.394531 273.585938 C 177.394531 273.527344 177.34375 273.476563 177.28125 273.476563 L 175.363281 273.476563 C 175.304688 273.476563 175.253906 273.425781 175.253906 273.367188 L 175.253906 268.507813 C 175.253906 268.445313 175.203125 268.398438 175.144531 268.398438 L 169.582031 268.398438 C 169.523438 268.398438 169.472656 268.445313 169.472656 268.507813 L 169.472656 273.367188 C 169.472656 273.425781 169.421875 273.476563 169.363281 273.476563 L 167.292969 273.476563 C 167.234375 273.476563 167.183594 273.527344 167.183594 273.585938 L 167.183594 277.15625 C 167.183594 277.214844 167.132813 277.265625 167.074219 277.265625 L 162.363281 277.265625 C 162.304688 277.265625 162.253906 277.316406 162.253906 277.375 L 162.253906 285.085938 C 162.253906 285.117188 162.234375 285.15625 162.203125 285.175781 L 158.09375 287.988281 C 158.054688 288.015625 158.03125 288.066406 158.054688 288.105469 L 158.632813 289.976563 L 161.773438 299.945313 C 161.78125 299.976563 161.804688 300.007813 161.832031 300.015625 L 165.734375 301.847656 L 171.742188 304.6875 C 171.761719 304.6875 171.773438 304.6875 171.792969 304.6875 L 172.992188 304.6875 C 173.003906 304.6875 173.023438 304.6875 173.042969 304.6875 L 182.984375 300.015625 C 183.011719 300.007813 183.03125 299.976563 183.042969 299.945313 L 186.773438 288.105469 C 186.78125 288.066406 186.761719 288.015625 186.722656 287.988281 L 182.214844 284.886719 C 182.183594 284.867188 182.164063 284.835938 182.164063 284.796875 "/>
<path style=" stroke:none;fill-rule:nonzero;fill:rgb(100%,45.097351%,46.273804%);fill-opacity:1;" d="M 18.035156 255.722656 C 17.644531 255.523438 17.265625 255.304688 16.90625 255.0625 C 12.484375 252.183594 10.105469 246.472656 11.175781 241.3125 C 11.554688 239.523438 12.285156 237.855469 13.15625 236.242188 C 13.714844 235.195313 14.34375 234.164063 14.964844 233.152344 L 20.503906 224.082031 C 20.886719 223.472656 21.253906 222.863281 21.625 222.265625 C 22.175781 221.363281 22.714844 220.472656 23.265625 219.585938 C 23.785156 218.742188 24.292969 217.894531 24.804688 217.054688 C 25.683594 218.625 26.566406 220.203125 27.445313 221.773438 C 27.644531 222.132813 27.816406 222.503906 27.957031 222.894531 C 33.433594 238.375 13.265625 246.535156 18.035156 255.722656 "/>
<path style=" stroke:none;fill-rule:nonzero;fill:rgb(100%,45.097351%,46.273804%);fill-opacity:1;" d="M 32.878906 257.308594 C 30.730469 258.597656 28.210938 259.296875 25.710938 259.246094 C 23.058594 259.195313 21.949219 258.078125 21.320313 256.847656 C 19.75 253.835938 21.820313 250.816406 25.320313 246.136719 C 28.660156 241.65625 32.648438 236.316406 32.378906 229.546875 C 33.480469 231.527344 34.589844 233.507813 35.699219 235.488281 C 36.28125 236.527344 36.859375 237.578125 37.378906 238.648438 C 38.179688 240.285156 38.851563 241.988281 39.148438 243.785156 C 40.019531 248.996094 37.410156 254.597656 32.878906 257.308594 "/>
</g>
</svg>
